<?xml version="1.0" encoding="UTF-8" standalone="no"?>
<!DOCTYPE svg PUBLIC "-//W3C//DTD SVG 1.1//EN" "http://www.w3.org/Graphics/SVG/1.1/DTD/svg11.dtd">
<svg width="100%" height="100%" viewBox="0 0 48 48" version="1.1" xmlns="http://www.w3.org/2000/svg" xmlns:xlink="http://www.w3.org/1999/xlink" xml:space="preserve" xmlns:serif="http://www.serif.com/" style="fill-rule:evenodd;clip-rule:evenodd;stroke-linejoin:round;stroke-miterlimit:2;">
    <g transform="matrix(0.948971,0,0,0.948971,-1645.5,-1617.87)">
        <g transform="matrix(2.01613,0,0,2.01613,-109.885,-14.3086)">
            <path d="M934.902,863.916L922.965,863.916C920.555,863.916 918.069,865.359 917.424,867.134L914.568,874.983C914.526,875.099 914.618,875.191 914.774,875.191L916.636,875.191C918.981,875.191 921.401,873.786 922.03,872.059L923.652,867.6L929.589,867.6C931.935,867.6 934.355,866.194 934.983,864.467L935.108,864.123C935.15,864.009 935.058,863.916 934.902,863.916Z"/>
        </g>
        <g transform="matrix(2.01613,0,0,2.01613,-109.885,-14.3086)">
            <path d="M939.636,855.529L939.448,856.045C938.82,857.772 936.4,859.178 934.054,859.178L920.6,859.178C920.445,859.178 920.353,859.085 920.394,858.971L920.582,858.455C921.21,856.727 923.63,855.321 925.976,855.321L939.43,855.321C939.585,855.321 939.678,855.414 939.636,855.529Z" style="fill:rgb(255,100,0);"/>
        </g>
    </g>
</svg>
